# xmcd CD database file
#
# Track frame offsets:
#	150
#	7567
#	34964
#	54605
#	76713
#	86636
#	106805
#	111983
#	128461
#	155441
#	174267
#	202006
#	204789
#	224879
#
# Disc length: 3212 seconds
#
# Revision: 0
# Processed by: cddbd v1.5.2PL0 Copyright (c) Steve Scherf et al.
# Submitted via: CDex 2.10
#
DISCID=ad0c8a0e
DTITLE=The Vampires - Pacifica
DYEAR=2019
DGENRE=Jazz
TTITLE0=Tofik
TTITLE1=Little Mountain
TTITLE2=Don Pacifico
TTITLE3=The View Fez
TTITLE4=Liberty?
TTITLE5=West Mass.
TTITLE6=Numer Domu 66
TTITLE7=Lahinch
TTITLE8=Annica
TTITLE9=Overnight
TTITLE10=Aeon
TTITLE11=Adrianek
TTITLE12=Vampage
TTITLE13=Little Dip
EXTD=YEAR: 2019
EXTT0=
EXTT1=
EXTT2=
EXTT3=
EXTT4=
EXTT5=
EXTT6=
EXTT7=
EXTT8=
EXTT9=
EXTT10=
EXTT11=
EXTT12=
EXTT13=
PLAYORDER=
